<?xml version="1.0" encoding="UTF-8" standalone="no"?>
<!DOCTYPE svg PUBLIC "-//W3C//DTD SVG 1.0//EN" "http://www.w3.org/TR/2001/PR-SVG-20010719/DTD/svg10.dtd">
<svg width="29cm" height="13cm" viewBox="292 68 580 245" xmlns="http://www.w3.org/2000/svg" xmlns:xlink="http://www.w3.org/1999/xlink">
  <g>
    <rect style="fill: #ffffff" x="489" y="276" width="89.6" height="36"/>
    <rect style="fill: none; fill-opacity:0; stroke-width: 2; stroke: #000000" x="489" y="276" width="89.6" height="36"/>
    <text font-size="12.7998" style="fill: #000000;text-anchor:middle;font-family:monospace;font-style:normal;font-weight:normal" x="533.8" y="298">Usuarios</text>
  </g>
  <g>
    <rect style="fill: #ffffff" x="628" y="73" width="243.6" height="36"/>
    <rect style="fill: none; fill-opacity:0; stroke-width: 2; stroke: #000000" x="628" y="73" width="243.6" height="36"/>
    <text font-size="12.7998" style="fill: #000000;text-anchor:middle;font-family:monospace;font-style:normal;font-weight:normal" x="749.8" y="95">Restablecimientos Contraseña</text>
  </g>
  <g>
    <rect style="fill: #ffffff" x="294" y="69" width="135.8" height="36"/>
    <rect style="fill: none; fill-opacity:0; stroke-width: 2; stroke: #000000" x="294" y="69" width="135.8" height="36"/>
    <text font-size="12.7998" style="fill: #000000;text-anchor:middle;font-family:monospace;font-style:normal;font-weight:normal" x="361.9" y="91">Procesamientos</text>
  </g>
  <g>
    <polygon style="fill: #ffffff" points="318,207.86 361.1,182 404.2,207.86 361.1,233.72 "/>
    <polygon style="fill: none; fill-opacity:0; stroke-width: 2; stroke: #000000" points="318,207.86 361.1,182 404.2,207.86 361.1,233.72 "/>
    <text font-size="12.7998" style="fill: #000000;text-anchor:end;font-family:monospace;font-style:normal;font-weight:normal" x="312" y="201.86"/>
    <text font-size="12.7998" style="fill: #000000;text-anchor:start;font-family:monospace;font-style:normal;font-weight:normal" x="410.2" y="201.86"/>
    <text font-size="12.7998" style="fill: #000000;text-anchor:middle;font-family:monospace;font-style:normal;font-weight:normal" x="361.1" y="211.86">genera</text>
  </g>
  <polyline style="fill: none; fill-opacity:0; stroke-width: 2; stroke: #000000" points="489,294 446.6,294 446.6,207.86 404.2,207.86 "/>
  <line style="fill: none; fill-opacity:0; stroke-width: 2; stroke: #000000" x1="361.1" y1="182" x2="361.9" y2="105"/>
  <text font-size="12.7998" style="fill: #000000;text-anchor:start;font-family:sans-serif;font-style:normal;font-weight:normal" x="368" y="120">
    <tspan x="368" y="120">n</tspan>
  </text>
  <polyline style="fill: none; fill-opacity:0; stroke-width: 2; stroke: #000000" points="578.6,294 642.803,294 642.803,204.86 707.006,204.86 "/>
  <g>
    <polygon style="fill: #ffffff" points="708,204.86 751.1,179 794.2,204.86 751.1,230.72 "/>
    <polygon style="fill: none; fill-opacity:0; stroke-width: 2; stroke: #000000" points="708,204.86 751.1,179 794.2,204.86 751.1,230.72 "/>
    <text font-size="12.7998" style="fill: #000000;text-anchor:end;font-family:monospace;font-style:normal;font-weight:normal" x="702" y="198.86"/>
    <text font-size="12.7998" style="fill: #000000;text-anchor:start;font-family:monospace;font-style:normal;font-weight:normal" x="800.2" y="198.86"/>
    <text font-size="12.7998" style="fill: #000000;text-anchor:middle;font-family:monospace;font-style:normal;font-weight:normal" x="751.1" y="208.86">genera</text>
  </g>
  <line style="fill: none; fill-opacity:0; stroke-width: 2; stroke: #000000" x1="751.1" y1="179" x2="749.8" y2="109"/>
  <text font-size="12.7998" style="fill: #000000;text-anchor:start;font-family:sans-serif;font-style:normal;font-weight:normal" x="740" y="114">
    <tspan x="740" y="114"></tspan>
  </text>
  <text font-size="12.7998" style="fill: #000000;text-anchor:start;font-family:sans-serif;font-style:normal;font-weight:normal" x="762" y="124">
    <tspan x="762" y="124">n</tspan>
  </text>
</svg>
