<?xml version="1.0" encoding="UTF-8" standalone="no"?>
<!DOCTYPE svg PUBLIC "-//W3C//DTD SVG 1.0//EN" "http://www.w3.org/TR/2001/PR-SVG-20010719/DTD/svg10.dtd">
<svg width="50cm" height="46cm" viewBox="-575 120 983 901" xmlns="http://www.w3.org/2000/svg" xmlns:xlink="http://www.w3.org/1999/xlink">
  <g>
    <ellipse style="fill: #ffffff" cx="-249.5" cy="213.5" rx="90.5" ry="32.5"/>
    <ellipse style="fill: none; fill-opacity:0; stroke-width: 2; stroke: #000000" cx="-249.5" cy="213.5" rx="90.5" ry="32.5"/>
  </g>
  <text font-size="12.8" style="fill: #000000;text-anchor:start;font-family:sans-serif;font-style:normal;font-weight:normal" x="-286.5" y="217.5">
    <tspan x="-286.5" y="217.5">Crear Cuenta</tspan>
  </text>
  <g>
    <ellipse style="fill: #ffffff" cx="-248" cy="393.4" rx="92" ry="29.85"/>
    <ellipse style="fill: none; fill-opacity:0; stroke-width: 2; stroke: #000000" cx="-248" cy="393.4" rx="92" ry="29.85"/>
  </g>
  <text font-size="12.8" style="fill: #000000;text-anchor:start;font-family:sans-serif;font-style:normal;font-weight:normal" x="-289" y="397.4">
    <tspan x="-289" y="397.4">Activar Cuenta</tspan>
  </text>
  <g>
    <ellipse style="fill: #ffffff" cx="-249.5" cy="484.3" rx="91.5" ry="30.95"/>
    <ellipse style="fill: none; fill-opacity:0; stroke-width: 2; stroke: #000000" cx="-249.5" cy="484.3" rx="91.5" ry="30.95"/>
  </g>
  <text font-size="12.8" style="fill: #000000;text-anchor:start;font-family:sans-serif;font-style:normal;font-weight:normal" x="-315.5" y="488.3">
    <tspan x="-315.5" y="488.3">Restablecer Contraseña</tspan>
  </text>
  <g>
    <ellipse style="fill: #ffffff" cx="-250" cy="567.4" rx="90" ry="27.1"/>
    <ellipse style="fill: none; fill-opacity:0; stroke-width: 2; stroke: #000000" cx="-250" cy="567.4" rx="90" ry="27.1"/>
  </g>
  <text font-size="12.8" style="fill: #000000;text-anchor:start;font-family:sans-serif;font-style:normal;font-weight:normal" x="-272" y="572.4">
    <tspan x="-272" y="572.4">Procesar</tspan>
  </text>
  <g>
    <ellipse style="fill: #ffffff" cx="45.5" cy="330.55" rx="86.5" ry="31.3"/>
    <ellipse style="fill: none; fill-opacity:0; stroke-width: 2; stroke: #000000" cx="45.5" cy="330.55" rx="86.5" ry="31.3"/>
  </g>
  <text font-size="12.8" style="fill: #000000;text-anchor:start;font-family:sans-serif;font-style:normal;font-weight:normal" x="-25.5" y="329.55">
    <tspan x="-25.5" y="329.55">Enviar Correo Electrónico </tspan>
    <tspan x="-25.5" y="345.55">           con Token</tspan>
  </text>
  <g>
    <ellipse style="fill: #ffffff" cx="-251" cy="655.9" rx="89" ry="30.35"/>
    <ellipse style="fill: none; fill-opacity:0; stroke-width: 2; stroke: #000000" cx="-251" cy="655.9" rx="89" ry="30.35"/>
  </g>
  <text font-size="12.8" style="fill: #000000;text-anchor:start;font-family:sans-serif;font-style:normal;font-weight:normal" x="-323" y="661.9">
    <tspan x="-323" y="661.9">Consultar Procesamientos</tspan>
  </text>
  <g>
    <ellipse style="fill: #ffffff" cx="-247.5" cy="749.8" rx="91.5" ry="31.7"/>
    <ellipse style="fill: none; fill-opacity:0; stroke-width: 2; stroke: #000000" cx="-247.5" cy="749.8" rx="91.5" ry="31.7"/>
  </g>
  <text font-size="12.8" style="fill: #000000;text-anchor:start;font-family:sans-serif;font-style:normal;font-weight:normal" x="-289.5" y="746.8">
    <tspan x="-289.5" y="746.8">Ver Resultados</tspan>
    <tspan x="-289.5" y="762.8">Procesamiento</tspan>
  </text>
  <g>
    <ellipse style="fill: #ffffff" cx="-244.5" cy="845.8" rx="93.496" ry="32.7"/>
    <ellipse style="fill: none; fill-opacity:0; stroke-width: 2; stroke: #000000" cx="-244.5" cy="845.8" rx="93.496" ry="32.7"/>
  </g>
  <text font-size="12.8" style="fill: #000000;text-anchor:start;font-family:sans-serif;font-style:normal;font-weight:normal" x="-301.5" y="842.25">
    <tspan x="-301.5" y="842.25">Descargar Resultados</tspan>
    <tspan x="-301.5" y="858.25">     Procesamiento</tspan>
  </text>
  <g>
    <line style="fill: none; fill-opacity:0; stroke-width: 2; stroke-dasharray: 4; stroke: #000000" x1="-159" y1="213.5" x2="-23.7823" y2="303.042"/>
    <polygon style="fill: #000000" points="-17.5291,307.183 -28.6273,305.831 -23.7823,303.042 -23.1061,297.493 "/>
    <polygon style="fill: none; fill-opacity:0; stroke-width: 2; stroke: #000000" points="-17.5291,307.183 -28.6273,305.831 -23.7823,303.042 -23.1061,297.493 "/>
  </g>
  <g>
    <line style="fill: none; fill-opacity:0; stroke-width: 2; stroke-dasharray: 4; stroke: #000000" x1="-158" y1="484.3" x2="-22.813" y2="359.292"/>
    <polygon style="fill: #000000" points="-17.3065,354.2 -21.2539,364.66 -22.813,359.292 -28.0432,357.318 "/>
    <polygon style="fill: none; fill-opacity:0; stroke-width: 2; stroke: #000000" points="-17.3065,354.2 -21.2539,364.66 -22.813,359.292 -28.0432,357.318 "/>
  </g>
  <g>
    <ellipse style="fill: #ffffff" cx="51" cy="436.1" rx="91.5" ry="30.95"/>
    <ellipse style="fill: none; fill-opacity:0; stroke-width: 2; stroke: #000000" cx="51" cy="436.1" rx="91.5" ry="30.95"/>
  </g>
  <text font-size="12.8" style="fill: #000000;text-anchor:start;font-family:sans-serif;font-style:normal;font-weight:normal" x="-15" y="440.1">
    <tspan x="-15" y="440.1">Descargar Efemérides</tspan>
  </text>
  <g>
    <ellipse style="fill: #ffffff" cx="49.5" cy="518" rx="91.5" ry="30.95"/>
    <ellipse style="fill: none; fill-opacity:0; stroke-width: 2; stroke: #000000" cx="49.5" cy="518" rx="91.5" ry="30.95"/>
  </g>
  <text font-size="12.8" style="fill: #000000;text-anchor:start;font-family:sans-serif;font-style:normal;font-weight:normal" x="-18.5" y="514">
    <tspan x="-18.5" y="514"> Descargar Información</tspan>
    <tspan x="-18.5" y="530">Desplazamiento del polo</tspan>
  </text>
  <g>
    <ellipse style="fill: #ffffff" cx="52" cy="601.9" rx="91.5" ry="30.95"/>
    <ellipse style="fill: none; fill-opacity:0; stroke-width: 2; stroke: #000000" cx="52" cy="601.9" rx="91.5" ry="30.95"/>
  </g>
  <text font-size="12.8" style="fill: #000000;text-anchor:start;font-family:sans-serif;font-style:normal;font-weight:normal" x="-27" y="606.9">
    <tspan x="-27" y="606.9">Configurar Archivo PPPconf</tspan>
  </text>
  <g>
    <line style="fill: none; fill-opacity:0; stroke-width: 2; stroke-dasharray: 4; stroke: #000000" x1="-160" y1="567.4" x2="-47.0533" y2="443.3"/>
    <polygon style="fill: #000000" points="-42.0051,437.754 -45.0382,448.515 -47.0533,443.3 -52.4338,441.784 "/>
    <polygon style="fill: none; fill-opacity:0; stroke-width: 2; stroke: #000000" points="-42.0051,437.754 -45.0382,448.515 -47.0533,443.3 -52.4338,441.784 "/>
  </g>
  <g>
    <line style="fill: none; fill-opacity:0; stroke-width: 2; stroke-dasharray: 4; stroke: #000000" x1="-160" y1="567.4" x2="-50.9808" y2="521.76"/>
    <polygon style="fill: #000000" points="-44.0626,518.864 -51.356,527.337 -50.9808,521.76 -55.2177,518.113 "/>
    <polygon style="fill: none; fill-opacity:0; stroke-width: 2; stroke: #000000" points="-44.0626,518.864 -51.356,527.337 -50.9808,521.76 -55.2177,518.113 "/>
  </g>
  <g>
    <line style="fill: none; fill-opacity:0; stroke-width: 2; stroke-dasharray: 4; stroke: #000000" x1="-160" y1="567.4" x2="-48.86" y2="599.22"/>
    <polygon style="fill: #000000" points="-41.6497,601.285 -52.6397,603.339 -48.86,599.22 -49.8872,593.725 "/>
    <polygon style="fill: none; fill-opacity:0; stroke-width: 2; stroke: #000000" points="-41.6497,601.285 -52.6397,603.339 -48.86,599.22 -49.8872,593.725 "/>
  </g>
  <g>
    <ellipse style="fill: #ffffff" cx="53" cy="685.35" rx="91.5" ry="30.95"/>
    <ellipse style="fill: none; fill-opacity:0; stroke-width: 2; stroke: #000000" cx="53" cy="685.35" rx="91.5" ry="30.95"/>
  </g>
  <text font-size="12.8" style="fill: #000000;text-anchor:start;font-family:sans-serif;font-style:normal;font-weight:normal" x="-23" y="689.35">
    <tspan x="-23" y="689.35">Leer Archivos out y model</tspan>
  </text>
  <g>
    <ellipse style="fill: #ffffff" cx="54.002" cy="781.35" rx="91.5" ry="31.7"/>
    <ellipse style="fill: none; fill-opacity:0; stroke-width: 2; stroke: #000000" cx="54.002" cy="781.35" rx="91.5" ry="31.7"/>
  </g>
  <text font-size="12.8" style="fill: #000000;text-anchor:start;font-family:sans-serif;font-style:normal;font-weight:normal" x="13.002" y="785.35">
    <tspan x="13.002" y="785.35">Generar Informe</tspan>
  </text>
  <g>
    <ellipse style="fill: #ffffff" cx="54.002" cy="869.35" rx="91.5" ry="31.7"/>
    <ellipse style="fill: none; fill-opacity:0; stroke-width: 2; stroke: #000000" cx="54.002" cy="869.35" rx="91.5" ry="31.7"/>
  </g>
  <text font-size="12.8" style="fill: #000000;text-anchor:start;font-family:sans-serif;font-style:normal;font-weight:normal" x="14.002" y="873.35">
    <tspan x="14.002" y="873.35">Generar Skyplot</tspan>
  </text>
  <g>
    <rect style="fill: #ffffff" x="281.002" y="563.25" width="124" height="80"/>
    <rect style="fill: none; fill-opacity:0; stroke-width: 2; stroke: #000000" x="281.002" y="563.25" width="124" height="80"/>
    <text font-size="12.8" style="fill: #000000;text-anchor:middle;font-family:sans-serif;font-style:normal;font-weight:normal" x="343.002" y="607.15">
      <tspan x="343.002" y="607.15"></tspan>
    </text>
  </g>
  <text font-size="12.8" style="fill: #000000;text-anchor:start;font-family:sans-serif;font-style:normal;font-weight:normal" x="302.002" y="607.25">
    <tspan x="302.002" y="607.25">Sistema GPSTk</tspan>
  </text>
  <line style="fill: none; fill-opacity:0; stroke-width: 2; stroke: #000000" x1="143.5" y1="601.9" x2="281.002" y2="603.25"/>
  <g>
    <line style="fill: none; fill-opacity:0; stroke-width: 2; stroke-dasharray: 4; stroke: #000000" x1="-156" y1="749.8" x2="-47.0363" y2="690.032"/>
    <polygon style="fill: #000000" points="-40.4605,686.425 -46.8236,695.618 -47.0363,690.032 -51.6328,686.851 "/>
    <polygon style="fill: none; fill-opacity:0; stroke-width: 2; stroke: #000000" points="-40.4605,686.425 -46.8236,695.618 -47.0363,690.032 -51.6328,686.851 "/>
  </g>
  <g>
    <rect style="fill: #ffffff" x="282.002" y="745.554" width="125" height="70"/>
    <rect style="fill: none; fill-opacity:0; stroke-width: 2; stroke: #000000" x="282.002" y="745.554" width="125" height="70"/>
    <text font-size="12.8" style="fill: #000000;text-anchor:middle;font-family:sans-serif;font-style:normal;font-weight:normal" x="344.502" y="784.454">
      <tspan x="344.502" y="784.454">Sistema</tspan>
    </text>
  </g>
  <line style="fill: none; fill-opacity:0; stroke-width: 2; stroke: #000000" x1="282.002" y1="780.554" x2="145.502" y2="869.35"/>
  <rect style="fill: none; fill-opacity:0; stroke-width: 2; stroke: #000000" x="-379.998" y="121.194" width="629" height="898.61"/>
  <line style="fill: none; fill-opacity:0; stroke-width: 2; stroke: #000000" x1="282.002" y1="780.554" x2="145.502" y2="781.35"/>
  <g>
    <ellipse style="fill: #ffffff" cx="-523.998" cy="489.054" rx="6" ry="6"/>
    <ellipse style="fill: none; fill-opacity:0; stroke-width: 2; stroke: #000000" cx="-523.998" cy="489.054" rx="6" ry="6"/>
    <line style="fill: none; fill-opacity:0; stroke-width: 2; stroke: #000000" x1="-547.998" y1="501.054" x2="-499.998" y2="501.054"/>
    <line style="fill: none; fill-opacity:0; stroke-width: 2; stroke: #000000" x1="-523.998" y1="495.054" x2="-523.998" y2="525.054"/>
    <line style="fill: none; fill-opacity:0; stroke-width: 2; stroke: #000000" x1="-523.998" y1="525.054" x2="-547.998" y2="551.054"/>
    <line style="fill: none; fill-opacity:0; stroke-width: 2; stroke: #000000" x1="-523.998" y1="525.054" x2="-499.998" y2="551.054"/>
    <text font-size="12.8" style="fill: #000000;text-anchor:middle;font-family:sans-serif;font-style:normal;font-weight:normal" x="-523.998" y="574.954">
      <tspan x="-523.998" y="574.954">Usuario</tspan>
    </text>
  </g>
  <g>
    <ellipse style="fill: #ffffff" cx="-518.998" cy="178.054" rx="6" ry="6"/>
    <ellipse style="fill: none; fill-opacity:0; stroke-width: 2; stroke: #000000" cx="-518.998" cy="178.054" rx="6" ry="6"/>
    <line style="fill: none; fill-opacity:0; stroke-width: 2; stroke: #000000" x1="-542.998" y1="190.054" x2="-494.998" y2="190.054"/>
    <line style="fill: none; fill-opacity:0; stroke-width: 2; stroke: #000000" x1="-518.998" y1="184.054" x2="-518.998" y2="214.054"/>
    <line style="fill: none; fill-opacity:0; stroke-width: 2; stroke: #000000" x1="-518.998" y1="214.054" x2="-542.998" y2="240.054"/>
    <line style="fill: none; fill-opacity:0; stroke-width: 2; stroke: #000000" x1="-518.998" y1="214.054" x2="-494.998" y2="240.054"/>
    <text font-size="12.8" style="fill: #000000;text-anchor:middle;font-family:sans-serif;font-style:normal;font-weight:normal" x="-518.998" y="263.954">
      <tspan x="-518.998" y="263.954">Usuario Potencial</tspan>
    </text>
  </g>
  <line style="fill: none; fill-opacity:0; stroke-width: 2; stroke: #000000" x1="-493.998" y1="214.054" x2="-340" y2="213.5"/>
  <line style="fill: none; fill-opacity:0; stroke-width: 2; stroke: #000000" x1="-498.998" y1="525.054" x2="-340" y2="393.4"/>
  <line style="fill: none; fill-opacity:0; stroke-width: 2; stroke: #000000" x1="-498.998" y1="525.054" x2="-341" y2="484.3"/>
  <line style="fill: none; fill-opacity:0; stroke-width: 2; stroke: #000000" x1="-498.998" y1="525.054" x2="-340" y2="567.4"/>
  <line style="fill: none; fill-opacity:0; stroke-width: 2; stroke: #000000" x1="-498.998" y1="525.054" x2="-340" y2="655.9"/>
  <line style="fill: none; fill-opacity:0; stroke-width: 2; stroke: #000000" x1="-498.998" y1="525.054" x2="-339" y2="749.8"/>
  <line style="fill: none; fill-opacity:0; stroke-width: 2; stroke: #000000" x1="-498.998" y1="525.054" x2="-337.996" y2="845.8"/>
  <text font-size="12.8" style="fill: #000000;text-anchor:start;font-family:sans-serif;font-style:normal;font-weight:normal" x="-65.498" y="570.5">
    <tspan x="-65.498" y="570.5"></tspan>
  </text>
  <text font-size="16.9333" style="fill: #000000;text-anchor:start;font-family:sans-serif;font-style:normal;font-weight:normal" x="-339.996" y="147.554">
    <tspan x="-339.996" y="147.554">Sistema de Procesamiento PPP</tspan>
  </text>
  <text font-size="12.8" style="fill: #000000;text-anchor:start;font-family:sans-serif;font-style:normal;font-weight:normal" x="-287.996" y="161.554">
    <tspan x="-287.996" y="161.554"></tspan>
  </text>
  <text font-size="12.8" style="fill: #000000;text-anchor:start;font-family:sans-serif;font-style:normal;font-weight:normal" x="-292.996" y="164.554">
    <tspan x="-292.996" y="164.554"></tspan>
  </text>
  <g>
    <ellipse style="fill: #ffffff" cx="58.004" cy="971.154" rx="91.5" ry="31.7"/>
    <ellipse style="fill: none; fill-opacity:0; stroke-width: 2; stroke: #000000" cx="58.004" cy="971.154" rx="91.5" ry="31.7"/>
  </g>
  <text font-size="12.8" style="fill: #000000;text-anchor:start;font-family:sans-serif;font-style:normal;font-weight:normal" x="5.004" y="975.154">
    <tspan x="5.004" y="975.154">Comprimir Archivos</tspan>
  </text>
  <g>
    <line style="fill: none; fill-opacity:0; stroke-width: 2; stroke-dasharray: 4; stroke: #000000" x1="-244.5" y1="878.5" x2="-42.4105" y2="967.24"/>
    <polygon style="fill: #000000" points="-35.5434,970.255 -46.7098,970.812 -42.4105,967.24 -42.6892,961.656 "/>
    <polygon style="fill: none; fill-opacity:0; stroke-width: 2; stroke: #000000" points="-35.5434,970.255 -46.7098,970.812 -42.4105,967.24 -42.6892,961.656 "/>
  </g>
  <text font-size="12.8" style="fill: #000000;text-anchor:start;font-family:sans-serif;font-style:normal;font-weight:normal" x="-102.996" y="249.054">
    <tspan x="-102.996" y="249.054">&lt;&lt;include&gt;&gt;</tspan>
  </text>
  <text font-size="12.8" style="fill: #000000;text-anchor:start;font-family:sans-serif;font-style:normal;font-weight:normal" x="-155.496" y="415.754">
    <tspan x="-155.496" y="415.754">&lt;&lt;include&gt;&gt;</tspan>
  </text>
  <text font-size="12.8" style="fill: #000000;text-anchor:start;font-family:sans-serif;font-style:normal;font-weight:normal" x="-195.996" y="526.654">
    <tspan x="-195.996" y="526.654">&lt;&lt;include&gt;&gt;</tspan>
  </text>
  <text font-size="12.8" style="fill: #000000;text-anchor:start;font-family:sans-serif;font-style:normal;font-weight:normal" x="-119.496" y="547.754">
    <tspan x="-119.496" y="547.754">&lt;&lt;include&gt;&gt;</tspan>
  </text>
  <text font-size="12.8" style="fill: #000000;text-anchor:start;font-family:sans-serif;font-style:normal;font-weight:normal" x="-129.996" y="578.654">
    <tspan x="-129.996" y="578.654">&lt;&lt;include&gt;&gt;</tspan>
  </text>
  <text font-size="12.8" style="fill: #000000;text-anchor:start;font-family:sans-serif;font-style:normal;font-weight:normal" x="-150.996" y="707.704">
    <tspan x="-150.996" y="707.704">&lt;&lt;include&gt;&gt;</tspan>
  </text>
  <text font-size="12.8" style="fill: #000000;text-anchor:start;font-family:sans-serif;font-style:normal;font-weight:normal" x="-152.496" y="917.854">
    <tspan x="-152.496" y="917.854">&lt;&lt;include&gt;&gt;</tspan>
  </text>
  <text font-size="12.8" style="fill: #000000;text-anchor:start;font-family:sans-serif;font-style:normal;font-weight:normal" x="63.506" y="741.394">
    <tspan x="63.506" y="741.394">&lt;&lt;include&gt;&gt;</tspan>
  </text>
  <g>
    <line style="fill: none; fill-opacity:0; stroke-width: 2; stroke-dasharray: 4; stroke: #000000" x1="54.002" y1="749.65" x2="53.2924" y2="726.032"/>
    <polygon style="fill: #000000" points="53.0672,718.535 58.3652,728.38 53.2924,726.032 48.3697,728.681 "/>
    <polygon style="fill: none; fill-opacity:0; stroke-width: 2; stroke: #000000" points="53.0672,718.535 58.3652,728.38 53.2924,726.032 48.3697,728.681 "/>
  </g>
  <line style="fill: none; fill-opacity:0; stroke-width: 2; stroke: #000000" x1="282.002" y1="780.554" x2="132" y2="330.55"/>
  <line style="fill: none; fill-opacity:0; stroke-width: 2; stroke: #000000" x1="282.002" y1="780.554" x2="142.5" y2="436.1"/>
  <line style="fill: none; fill-opacity:0; stroke-width: 2; stroke: #000000" x1="282.002" y1="780.554" x2="141" y2="518"/>
  <line style="fill: none; fill-opacity:0; stroke-width: 2; stroke: #000000" x1="282.002" y1="780.554" x2="143.5" y2="601.9"/>
  <line style="fill: none; fill-opacity:0; stroke-width: 2; stroke: #000000" x1="282.002" y1="780.554" x2="149.504" y2="971.154"/>
  <g>
    <ellipse style="fill: #ffffff" cx="-247.668" cy="303.944" rx="92" ry="29.85"/>
    <ellipse style="fill: none; fill-opacity:0; stroke-width: 2; stroke: #000000" cx="-247.668" cy="303.944" rx="92" ry="29.85"/>
  </g>
  <text font-size="12.8" style="fill: #000000;text-anchor:start;font-family:sans-serif;font-style:normal;font-weight:normal" x="-296.668" y="307.944">
    <tspan x="-296.668" y="307.944">Autenticar Usuario</tspan>
  </text>
  <line style="fill: none; fill-opacity:0; stroke-width: 2; stroke: #000000" x1="-498.998" y1="525.054" x2="-339.668" y2="303.944"/>
</svg>
